Patient4_TMGait_0pt8_01_left_11_GRF.mot
version=1
nRows=39
nColumns=19
inDegrees=no
endheader
time	F1x	F1y	F1z	M1x	M1y	M1z	F2x	F2y	F2z	M2x	M2y	M2z	EC1x	EC1y	EC1z	EC2x	EC2y	EC2z
11.48	-18.4327	14.6343	-5.1121	-4.4077	-0.14526	19.579	-58.0906	680.2273	-81.3819	244.0676	100.7961	773.551	-0.0592	0.0182	-0.0073	-0.0462	0.0165	0.9585
11.4916	-12.5381	10.7019	-3.2433	-3.2551	-0.33509	14.202	-50.755	682.0172	-77.8033	243.1977	97.078	772.7501	-0.0592	0.0182	-0.0073	-0.0462	0.0165	0.9585
11.5031	-7.6012	7.3617	-1.699	-2.277	-0.49112	9.6258	-44.1187	683.3617	-74.211	242.5231	93.0818	770.5296	-0.0592	0.0182	-0.0073	-0.0462	0.0165	0.9585
11.5147	-3.8631	4.7893	-0.52972	-1.5283	-0.62428	6.0711	-38.3315	684.5152	-70.7399	242.2648	88.8855	767.1546	-0.0592	0.0182	-0.0073	-0.0462	0.0165	0.9585
11.5263	-1.3258	3.0224	0.26349	-1.0187	-0.72878	3.6015	-33.2231	685.965	-67.4096	242.6345	84.481	763.1637	-0.0592	0.0182	-0.0073	-0.0462	0.0165	0.9585
11.5379	0.22554	1.902	0.75978	-0.70187	-0.8198	2.0064	-28.4598	688.3372	-64.1813	243.8358	79.8178	759.2545	-0.0592	0.0182	-0.0073	-0.0462	0.0165	0.9585
11.5494	0.98852	1.2887	1.0274	-0.53323	-0.90499	1.1201	-23.6645	692.402	-61.0334	246.0769	74.8654	756.28	-0.0592	0.0182	-0.0073	-0.0462	0.0165	0.9585
11.561	1.2397	0.99389	1.1435	-0.45494	-0.98158	0.68405	-18.4835	698.8414	-57.9802	249.5124	69.6288	754.9942	-0.0592	0.0182	-0.0073	-0.0462	0.0165	0.9585
11.5726	1.13	0.87397	1.1711	-0.41869	-1.066	0.52989	-12.7003	708.1479	-55.1175	254.2069	64.2129	755.9905	-0.0592	0.0182	-0.0073	-0.0462	0.0165	0.9585
11.5841	0.84117	0.7593	1.161	-0.37018	-1.1576	0.41179	-6.2746	720.421	-52.592	260.0732	58.8137	759.502	-0.0592	0.0182	-0.0073	-0.0462	0.0165	0.9585
11.5957	0.43758	0.52009	1.1579	-0.26216	-1.2899	0.17977	0.57211	735.22	-50.6105	266.8242	53.748	765.2927	-0.0592	0.0182	-0.0073	-0.0462	0.0165	0.9585
11.6073	0.021493	0.0032688	1.1885	-0.043281	-1.4688	-0.39675	7.4819	751.4915	-49.3461	273.9568	49.335	772.5391	-0.0592	0.0182	-0.0073	-0.0462	0.0165	0.9585
11.6189	-0.3846	-0.88385	1.2651	0.32443	-1.7012	-1.4199	14.0137	767.6376	-48.934	280.7872	45.8688	779.8999	-0.0592	0.0182	-0.0073	-0.0462	0.0165	0.9585
11.6304	-0.69512	-2.2134	1.375	0.86408	-1.9448	-3.0157	19.8693	781.8869	-49.3975	286.6014	43.4766	785.8189	-0.0592	0.0182	-0.0073	-0.0462	0.0165	0.9585
11.642	-0.88279	-3.9467	1.4833	1.5598	-2.1408	-5.1234	24.9213	792.7831	-50.6604	290.8337	42.123	789.004	-0.0592	0.0182	-0.0073	-0.0462	0.0165	0.9585
11.6536	-0.81913	-5.9338	1.5287	2.3457	-2.167	-7.5856	29.1657	799.3773	-52.5506	293.1475	41.6412	788.5854	-0.0592	0.0182	-0.0073	-0.0462	0.0165	0.9585
11.6651	-0.41174	-7.7972	1.4068	3.0691	-1.8523	-9.9312	32.6412	801.3177	-54.8681	293.448	41.832	784.2664	-0.0592	0.0182	-0.0073	-0.0462	0.0165	0.9585
11.6767	0.52698	-8.9181	0.99718	3.4775	-0.97103	-11.3988	35.3887	798.684	-57.4154	291.8227	42.5034	776.1258	-0.0592	0.0182	-0.0073	-0.0462	0.0165	0.9585
11.6883	2.1547	-8.2946	0.13275	3.1824	0.74941	-10.7185	37.4289	791.91	-60.0137	288.4986	43.4877	764.5631	-0.0592	0.0182	-0.0073	-0.0462	0.0165	0.9585
11.6999	4.66	-4.5623	-1.347	1.6539	3.5835	-6.2219	38.8418	781.6707	-62.4991	283.7975	44.6173	750.1728	-0.0592	0.0182	-0.0073	-0.0462	0.0165	0.9585
11.7114	8.1065	4.0291	-3.6109	-1.779	7.7631	4.2769	39.7241	768.8255	-64.6858	278.1067	45.6937	733.7128	-0.0592	0.0182	-0.0073	-0.0462	0.0165	0.9585
11.723	12.4414	19.4135	-6.7294	-7.8563	13.3494	23.1691	40.282	754.3253	-66.384	271.8388	46.4797	715.9951	-0.0592	0.0182	-0.0073	-0.0462	0.0165	0.9585
11.7346	17.2557	43.4081	-10.6408	-17.2614	20.094	52.7379	40.7456	739.0492	-67.4059	265.371	46.7254	697.7604	-0.0592	0.0182	-0.0073	-0.0462	0.0165	0.9585
11.7461	21.743	77.0933	-14.9893	-30.3829	27.2138	94.3599	41.3497	723.6158	-67.5958	258.9734	46.2116	679.5032	-0.0592	0.0182	-0.0073	-0.0462	0.0165	0.9585
11.7577	24.3906	120.0718	-19.0313	-47.0202	33.1894	147.6436	42.2306	708.2228	-66.8364	252.7424	44.7802	661.3883	-0.0592	0.0182	-0.0073	-0.0462	0.0165	0.9585
11.7693	23.3677	170.0941	-21.7182	-66.2421	36.035	209.9135	43.4554	692.441	-65.0854	246.5329	42.3712	643.0316	-0.0592	0.0182	-0.0073	-0.0462	0.0165	0.9585
11.7809	18.0279	223.7545	-21.8775	-86.6449	34.0538	277.0681	44.984	675.3359	-62.3314	239.9994	38.9899	623.609	-0.0592	0.0182	-0.0073	-0.0462	0.0165	0.9585
11.7924	9.4079	276.9784	-18.5652	-106.5936	26.4888	344.0093	46.7338	655.5939	-58.6578	232.6519	34.7479	601.9659	-0.0592	0.0182	-0.0073	-0.0462	0.0165	0.9585
11.804	-0.93015	325.2797	-11.7759	-124.3968	13.9615	404.898	48.5066	631.8211	-54.1896	223.9674	29.8301	576.9294	-0.0592	0.0182	-0.0073	-0.0462	0.0165	0.9585
11.8156	-11.2126	364.7883	-2.5334	-138.694	-1.5128	454.5931	50.0623	602.8051	-49.1001	213.4923	24.4872	547.4717	-0.0592	0.0182	-0.0073	-0.0462	0.0165	0.9585
11.8271	-20.2437	394.3219	7.6592	-149.1493	-17.5598	491.442	51.0916	567.8658	-43.5722	200.9677	19.0062	513.0648	-0.0592	0.0182	-0.0073	-0.0462	0.0165	0.9585
11.8387	-27.8842	415.7343	17.357	-156.5686	-32.334	517.7308	51.2824	527.0978	-37.7931	186.4138	13.6771	473.8715	-0.0592	0.0182	-0.0073	-0.0462	0.0165	0.9585
11.8503	-34.334	432.5896	25.4655	-162.369	-44.5875	537.8733	50.3957	481.3389	-31.9934	170.1155	8.7969	430.7062	-0.0592	0.0182	-0.0073	-0.0462	0.0165	0.9585
11.8619	-39.7834	448.0623	31.2107	-167.8099	-53.4928	555.836	48.2926	431.9776	-26.3731	152.5637	4.5902	384.8442	-0.0592	0.0182	-0.0073	-0.0462	0.0165	0.9585
11.8734	-44.1603	464.1939	34.481	-173.6713	-58.9169	574.0879	44.9423	380.7768	-21.1195	134.3832	1.2344	337.8676	-0.0592	0.0182	-0.0073	-0.0462	0.0165	0.9585
11.885	-47.2957	481.9567	35.7231	-180.2754	-61.3669	593.816	40.4123	329.5849	-16.3429	116.2363	-1.2079	291.3908	-0.0592	0.0182	-0.0073	-0.0462	0.0165	0.9585
11.8966	-49.0575	501.5529	35.7767	-187.6197	-61.836	615.264	34.9418	280.1814	-12.1107	98.7559	-2.7765	246.9387	-0.0592	0.0182	-0.0073	-0.0462	0.0165	0.9585
11.9081	-49.5462	522.6995	35.6769	-195.4953	-61.6059	638.1191	28.9337	234.0527	-8.4124	82.4701	-3.6468	205.7363	-0.0592	0.0182	-0.0073	-0.0462	0.0165	0.9585
11.9197	-49.0513	544.776	36.2268	-203.5961	-61.7602	661.6992	22.8796	192.2566	-5.2802	67.746	-3.99	168.6148	-0.0592	0.0182	-0.0073	-0.0462	0.0165	0.9585
